<?xml version="1.0" standalone="no"?>
<!DOCTYPE svg PUBLIC "-//W3C//DTD SVG 20010904//EN"
 "http://www.w3.org/TR/2001/REC-SVG-20010904/DTD/svg10.dtd">
<svg version="1.0" xmlns="http://www.w3.org/2000/svg"
 width="502.000000pt" height="502.000000pt" viewBox="0 0 502.000000 502.000000"
 preserveAspectRatio="xMidYMid meet">
<metadata>
Created by potrace 1.11, written by Peter Selinger 2001-2013
</metadata>
<g transform="translate(0.000000,502.000000) scale(0.100000,-0.100000)"
fill="#000000" stroke="none">
<path d="M2460 4997 c-3 -3 -52 -8 -110 -11 -112 -6 -156 -11 -235 -26 -27 -5
-61 -12 -75 -14 -21 -4 -69 -14 -142 -32 -10 -2 -26 -6 -35 -8 -111 -26 -387
-135 -501 -197 -121 -66 -167 -93 -172 -99 -3 -3 -30 -21 -60 -40 -30 -19 -57
-37 -60 -40 -3 -3 -30 -24 -60 -46 -30 -23 -75 -59 -99 -80 -24 -22 -53 -47
-65 -57 -50 -43 -134 -128 -178 -178 -26 -30 -57 -65 -69 -79 -62 -71 -197
-268 -234 -340 -10 -19 -21 -37 -24 -40 -4 -3 -15 -25 -26 -50 -11 -25 -22
-47 -26 -50 -3 -3 -22 -45 -43 -95 -21 -49 -44 -104 -51 -120 -17 -38 -87
-276 -109 -370 -9 -38 -24 -133 -33 -209 -15 -116 -20 -140 -35 -144 -16 -4
-18 -19 -18 -163 0 -157 2 -165 33 -160 4 0 8 -7 8 -17 14 -216 106 -585 203
-810 74 -171 195 -392 231 -422 8 -7 15 -17 15 -22 0 -10 71 -104 130 -173 76
-89 187 -202 264 -268 11 -10 32 -28 46 -40 164 -141 440 -307 635 -381 39
-15 79 -31 90 -36 70 -30 366 -108 480 -125 151 -24 227 -29 380 -30 133 0
250 7 310 19 11 2 43 7 70 10 243 33 607 155 815 276 293 169 491 330 687 557
84 97 211 273 258 358 70 125 107 197 136 266 17 41 37 88 44 104 31 71 97
299 111 385 2 14 9 45 14 70 22 100 34 262 34 450 0 177 -10 306 -30 404 -2
11 -7 37 -10 56 -15 93 -98 385 -115 405 -5 5 -9 15 -9 23 0 33 -140 310 -225
444 -106 167 -290 383 -426 500 -30 26 -72 63 -94 82 -22 20 -43 36 -47 36 -4
0 -15 8 -25 18 -10 10 -58 45 -108 77 -49 32 -102 66 -117 76 -15 11 -29 19
-32 19 -2 0 -30 15 -63 33 -32 18 -103 52 -158 75 -55 24 -107 47 -115 51 -16
9 -264 87 -320 101 -63 16 -125 30 -150 34 -14 2 -41 7 -60 10 -132 23 -418
45 -430 33z"/>
</g>
</svg>
